# xmcd
#
# Track frame offsets:
#	150
#	17437
#	47130
#	68622
#	86832
#	104672
#	125187
#	140147
#	157715
#	175347
#	205165
#	228285
#
# Disc length: 3226 seconds
#
# Revision: 0
# Processed by: cddbd v1.5.1PL2 Copyright (c) Steve Scherf et al.
# Submitted via: dBpowerAMP V4.0
#
DISCID=a30c980c
DTITLE=Various Artist - Texas Blues Guitar Summit
DYEAR=1997
DGENRE=Blues
TTITLE0=[Andrew Jr. Boy Jones]/[Fast Women]
TTITLE1=[U.P. Wilson]/[That's Your Woman But She Comes To See Me Sometime]
TTITLE2=[U.P. Wilson][Chankety Chank]
TTITLE3=[U.P. Wilson and Bobby Gilmore][I Just Can't Help It]
TTITLE4=[Bobby Gilmore]/[I Can't Be This Way No' More]
TTITLE5=[Bobby Gilmoe]/[Strange Bed]
TTITLE6=[Harry Qualls]/[Party Tonight]
TTITLE7=[Harry Qualls]/[Rosie Mae]
TTITLE8=[J.B. Wynne]/[Are You Sticking With Me Baby]
TTITLE9=[J.B. Wynne]/[All Alone Blues]
TTITLE10=[J.B. Wynne]/[Dynamite]
TTITLE11=[Andrew Junior Boy Jones]/[Stinky Dink]
EXTD=JSP Records UK CD 293\nwith Hash Brown and C. B. Scott\nproduced by Tone Summer
EXTT0=
EXTT1=
EXTT2=
EXTT3=
EXTT4=
EXTT5=
EXTT6=
EXTT7=
EXTT8=
EXTT9=
EXTT10=
EXTT11=
PLAYORDER=
